<svg id="RM_logo" xmlns="http://www.w3.org/2000/svg" width="200" height="34.622" viewBox="0 0 200 34.622">
  <path id="Path_1" data-name="Path 1" d="M626.917,376.3h5.927c.189-2.531-.161-4.062-1.25-5.223-1.143-1.26-2.762-1.779-5.505-1.779h-10.55l-1.846,19.756h5.931l1.361-14.567h3.879C626.589,374.487,627.04,374.888,626.917,376.3Z" transform="translate(-489.028 -362.588)" fill="#760f31"/>
  <path id="Path_2" data-name="Path 2" d="M307.554,356.318c2.743,0,4.362.519,5.5,1.779s1.476,2.854,1.216,5.634l-.173,1.853c-.443,4.745-2.078,6.783-5.914,7.376l5.212,8.081h-6.931L301.77,373h-6.894l-.752,8.043h-6.19l2.31-24.723Zm-2.05,11.231c1.742,0,2.262-.408,2.4-1.853l.194-2.075c.135-1.446-.309-1.853-2.051-1.853H295.925l-.54,5.782Z" transform="translate(-287.934 -354.576)" fill="#760f31"/>
  <path id="Path_3" data-name="Path 3" d="M461.845,371.077c-1.142-1.26-2.761-1.779-5.541-1.779H452.19c-2.3,0-3.6.482-4.756,1.7-1.058-1.372-2.176-1.7-5.919-1.7h-15.42l-6.533,11.6L415.2,369.3h-6.412l7.162,18.162-1.876,3.41c-.447.816-1.145,1.149-2.479,1.149h-4.563l-.485,5.19,5.008,0c3.966,0,5.5-.927,7.667-4.707l12.27-21.425-1.68,17.978h5.931l1.361-14.567h4.93c1.742,0,2.186.408,2.051,1.854l-1.188,12.713h5.931l1.187-12.713c.135-1.446.655-1.854,2.471-1.854h2.558c1.816,0,2.259.408,2.124,1.854l-1.188,12.713h5.931l1.153-12.343C463.321,373.931,462.989,372.337,461.845,371.077Z" transform="translate(-361.152 -362.588)" fill="#760f31"/>
  <path id="Path_4" data-name="Path 4" d="M666.1,369.3h5.931l-1.846,19.756H664.25Z" transform="translate(-520.238 -362.588)" fill="#760f31"/>
  <path id="Path_5" data-name="Path 5" d="M700.552,376.341c.135-1.446-.309-1.854-2.051-1.854H692.83l-1.361,14.567h-5.931l1.846-19.756h12.343c2.744,0,4.363.519,5.505,1.779,1.146,1.223,1.476,2.854,1.216,5.634L705.3,389.054h-5.931Z" transform="translate(-533.379 -362.588)" fill="#760f31"/>
  <path id="Path_6" data-name="Path 6" d="M763.963,383.235c-.829,4.114-3.138,5.819-7.919,5.819h-5.45c-2.743,0-4.362-.519-5.5-1.779-1.146-1.223-1.479-2.817-1.212-5.672l.457-4.892c.263-2.817.894-4.411,2.269-5.634,1.378-1.26,3.094-1.779,5.837-1.779h5.45c2.743,0,4.362.519,5.508,1.742s1.486,2.743,1.212,5.671l-.412,4.411h-14.6l-.114,1.223c-.138,1.483.3,1.89,2.047,1.89h4.486c1.429,0,2.018-.215,2.257-.973Zm-4.992-7.265c.139-1.483-.268-1.89-2.048-1.89h-4.448c-1.742,0-2.261.408-2.4,1.89l-.114,1.223h8.9Z" transform="translate(-569.339 -362.588)" fill="#760f31"/>
  <path id="Path_7" data-name="Path 7" d="M376.666,371.13c-1.142-1.26-2.762-1.832-5.5-1.832h-4.954c-4.781,0-7.09,1.758-7.919,5.872l5.694-.028c.239-.758.827-1.069,2.257-1.069h3.991c1.742,0,2.139.438,1.986,1.986l-.114,1.133h-9.24c-5.5.107-5.715,4.5-5.715,4.5-.274,2.928.067,4.448,1.212,5.671s2.768,1.683,5.511,1.683l12.884.006s.4-4.543.668-7.36l.457-4.893C378.145,373.947,377.812,372.353,376.666,371.13ZM371.5,384.211s-.476.024-2.219.024h-4.448c-1.779,0-2.238-.4-2.047-1.89a1.419,1.419,0,0,1,1.37-1.223h7.64Z" transform="translate(-330.604 -362.588)" fill="#760f31"/>
  <path id="Path_8" data-name="Path 8" d="M576.551,371.13c-1.142-1.26-2.762-1.832-5.5-1.832h-4.955c-4.781,0-7.091,1.758-7.919,5.872l5.694-.028c.239-.758.827-1.069,2.256-1.069h3.991c1.742,0,2.14.438,1.987,1.986l-.114,1.133h-9.24c-5.5.107-5.715,4.5-5.715,4.5-.274,2.928.066,4.448,1.212,5.671s2.768,1.683,5.511,1.683l12.884.006s.4-4.543.668-7.36l.457-4.893C578.03,373.947,577.7,372.353,576.551,371.13Zm-5.167,13.081s-.477.024-2.219.024h-4.448c-1.78,0-2.238-.4-2.048-1.89a1.419,1.419,0,0,1,1.37-1.223h7.64Z" transform="translate(-453.995 -362.588)" fill="#760f31"/>
  <path id="Path_9" data-name="Path 9" d="M669.923,351.765h8.848s-2.246,5.277-9.3,4.915Z" transform="translate(-523.457 -351.765)" fill="#760f31"/>
  <g id="Group_1" data-name="Group 1" transform="translate(196.52 4.97)">
    <path id="Path_10" data-name="Path 10" d="M801.456,366.491a1.74,1.74,0,1,1,1.74,1.74A1.735,1.735,0,0,1,801.456,366.491Zm3.018,0a1.277,1.277,0,1,0-1.277,1.277A1.212,1.212,0,0,0,804.474,366.491Zm-.412.944h-.476l-.417-.791H802.9v.791h-.417v-1.874h.912c.491,0,.727.129.727.574,0,.347-.181.486-.514.509Zm-.666-1.116c.162,0,.282-.046.282-.236,0-.218-.241-.2-.375-.2H802.9v.435Z" transform="translate(-801.456 -364.751)" fill="#760f31"/>
  </g>
</svg>
