<?xml version="1.0" standalone="no"?><!DOCTYPE svg PUBLIC "-//W3C//DTD SVG 1.1//EN" "http://www.w3.org/Graphics/SVG/1.1/DTD/svg11.dtd"><svg t="1595921637135" class="icon" viewBox="0 0 1024 1024" version="1.1" xmlns="http://www.w3.org/2000/svg" p-id="1575" xmlns:xlink="http://www.w3.org/1999/xlink" width="200" height="200"><defs><style type="text/css"></style></defs><path d="M691.456 588.459a42.667 42.667 0 0 1-60.245 60.416c-34.816-34.731-71.68-51.542-119.211-51.542-49.621 0-82.09 14.464-119.168 51.499a42.667 42.667 0 1 1-60.33-60.33C385.023 535.892 438.954 512 512 512c71.339 0 129.365 26.496 179.456 76.459z m106.71-128a42.667 42.667 0 0 1-60.331 60.373C676.907 459.947 600.96 426.667 512 426.667s-164.907 33.237-225.835 94.165a42.667 42.667 0 1 1-60.33-60.33C302.379 383.956 399.787 341.332 512 341.332s209.621 42.624 286.165 119.168z m124.5-131.115a42.667 42.667 0 1 1-53.333 66.645C745.472 296.875 651.435 256 512 256s-233.472 40.875-357.333 139.947a42.667 42.667 0 0 1-53.334-66.56C239.061 219.136 350.635 170.667 512 170.667s272.939 48.512 410.667 158.72zM512 810.667a64 64 0 1 1 0-128 64 64 0 0 1 0 128z" p-id="1576" data-spm-anchor-id="a313x.7781069.0.i5" class="selected"></path></svg>